<?xml version="1.0" encoding="utf-8"?>
<!-- Generator: Adobe Illustrator 25.2.0, SVG Export Plug-In . SVG Version: 6.00 Build 0)  -->
<svg version="1.1" id="Layer_1" xmlns="http://www.w3.org/2000/svg" xmlns:xlink="http://www.w3.org/1999/xlink" x="0px" y="0px"
	 viewBox="0 0 90 90" style="enable-background:new 0 0 90 90;" xml:space="preserve">
<style type="text/css">
	.st0{fill:#2081E2;}
	.st1{fill:#FFFFFF;}
</style>
<path class="st0" d="M90,45c0,24.9-20.1,45-45,45S0,69.9,0,45S20.1,0,45,0C69.9,0,90,20.1,90,45z"/>
<path class="st1" d="M21.8,45.9l0.2-0.3l11.7-18.5c0.2-0.3,0.6-0.2,0.7,0.1c1.9,4.4,3.6,9.9,2.8,13.4c-0.3,1.4-1.3,3.3-2.3,5.1
	c-0.1,0.3-0.3,0.5-0.4,0.8c-0.1,0.1-0.2,0.2-0.3,0.2h-12C21.8,46.5,21.6,46.1,21.8,45.9z"/>
<path class="st1" d="M74.4,49.3v2.9c0,0.2-0.1,0.3-0.3,0.4c-0.9,0.4-4.1,1.8-5.4,3.6c-3.3,4.6-5.9,11.2-11.6,11.2H33.4
	c-8.4,0-14.9-7.1-14.9-14.8v-0.2c0-0.2,0.2-0.4,0.4-0.4h13c0.3,0,0.4,0.2,0.4,0.5c-0.1,0.8,0.1,1.6,0.5,2.3c0.8,1.5,2.4,2.4,4.1,2.4
	h6.6v-5.1H37c-0.3,0-0.5-0.4-0.3-0.7c0.1-0.1,0.1-0.2,0.2-0.3c0.6-0.9,1.5-2.2,2.4-3.8c0.6-1,1.2-2.1,1.6-3.3
	c0.1-0.2,0.2-0.4,0.2-0.6c0.1-0.4,0.3-0.7,0.4-1c0.1-0.3,0.2-0.6,0.2-0.8c0.2-0.9,0.3-1.9,0.3-3c0-0.4,0-0.8-0.1-1.2
	c0-0.4-0.1-0.9-0.1-1.3c0-0.4-0.1-0.8-0.2-1.2c-0.1-0.6-0.2-1.2-0.4-1.8l-0.1-0.2c-0.1-0.4-0.2-0.8-0.3-1.2
	c-0.4-1.3-0.8-2.5-1.2-3.7c-0.2-0.5-0.4-0.9-0.5-1.3c-0.3-0.7-0.6-1.3-0.8-1.8c-0.1-0.3-0.2-0.5-0.4-0.7c-0.1-0.3-0.3-0.6-0.4-0.8
	c-0.1-0.2-0.2-0.4-0.3-0.6l-0.8-1.5c-0.1-0.2,0.1-0.4,0.3-0.4l5,1.4h0c0,0,0,0,0,0l0.7,0.2l0.7,0.2l0.3,0.1v-3
	c0-1.4,1.2-2.6,2.6-2.6c0.7,0,1.4,0.3,1.8,0.8c0.5,0.5,0.8,1.1,0.8,1.8v4.4l0.5,0.1c0,0,0.1,0,0.1,0.1c0.1,0.1,0.3,0.2,0.6,0.4
	c0.2,0.1,0.4,0.3,0.6,0.5c0.5,0.4,1.1,0.9,1.7,1.5c0.2,0.1,0.3,0.3,0.5,0.4c0.8,0.8,1.7,1.6,2.6,2.6c0.2,0.3,0.5,0.6,0.7,0.8
	c0.2,0.3,0.5,0.6,0.7,0.9c0.3,0.4,0.6,0.8,0.9,1.2c0.1,0.2,0.3,0.4,0.4,0.6c0.4,0.5,0.7,1.1,1,1.6c0.1,0.3,0.3,0.5,0.4,0.8
	c0.3,0.7,0.6,1.5,0.8,2.3c0.1,0.2,0.1,0.3,0.1,0.5v0c0.1,0.2,0.1,0.5,0.1,0.7c0.1,0.8,0,1.5-0.1,2.3c-0.1,0.3-0.2,0.6-0.3,1
	c-0.1,0.3-0.2,0.6-0.4,1c-0.3,0.6-0.6,1.3-1,1.9c-0.1,0.2-0.3,0.5-0.4,0.7c-0.2,0.2-0.3,0.5-0.5,0.7c-0.2,0.3-0.4,0.6-0.7,0.8
	c-0.2,0.3-0.4,0.6-0.6,0.8c-0.3,0.4-0.6,0.7-0.9,1.1c-0.2,0.2-0.4,0.4-0.6,0.6c-0.2,0.2-0.4,0.4-0.6,0.6c-0.3,0.3-0.6,0.6-0.8,0.8
	L52.9,52c-0.1,0.1-0.2,0.1-0.3,0.1h-4v5.1h5c1.1,0,2.2-0.4,3.1-1.1c0.3-0.3,1.6-1.4,3.1-3c0.1-0.1,0.1-0.1,0.2-0.1l13.9-4
	C74.1,48.8,74.4,49,74.4,49.3z"/>
</svg>
